<svg width="127" height="73" viewBox="0 0 127 73" fill="none" xmlns="http://www.w3.org/2000/svg">
<path d="M120.793 72.5712V60.1577M114.586 66.3645H127H114.586Z" stroke="#8BD2BD" stroke-miterlimit="10"/>
<path d="M120.793 42.0149V29.6013M114.586 35.8081H127H114.586Z" stroke="#8BD2BD" stroke-miterlimit="10"/>
<path d="M120.793 12.4135V0M114.586 6.20677H127H114.586Z" stroke="#8BD2BD" stroke-miterlimit="10"/>
<path d="M120.793 72.5712V60.1577M114.586 66.3645H127H114.586Z" stroke="#1D262D" stroke-width="2" stroke-miterlimit="10"/>
<path d="M120.793 42.0149V29.6013M114.586 35.8081H127H114.586Z" stroke="#1D262D" stroke-width="2" stroke-miterlimit="10"/>
<path d="M120.793 12.4135V0M114.586 6.20677H127H114.586Z" stroke="#1D262D" stroke-width="2" stroke-miterlimit="10"/>
<path d="M92.1466 72.5712V60.1577M85.9398 66.3645H98.3534H85.9398Z" stroke="#8BD2BD" stroke-miterlimit="10"/>
<path d="M92.1466 42.0149V29.6013M85.9398 35.8081H98.3534H85.9398Z" stroke="#8BD2BD" stroke-miterlimit="10"/>
<path d="M92.1462 12.4135V0M85.9394 6.20677H98.353H85.9394Z" stroke="#8BD2BD" stroke-miterlimit="10"/>
<path d="M92.1466 72.5712V60.1577M85.9398 66.3645H98.3534H85.9398Z" stroke="#1D262D" stroke-width="2" stroke-miterlimit="10"/>
<path d="M92.1466 42.0149V29.6013M85.9398 35.8081H98.3534H85.9398Z" stroke="#1D262D" stroke-width="2" stroke-miterlimit="10"/>
<path d="M92.1462 12.4135V0M85.9394 6.20677H98.353H85.9394Z" stroke="#1D262D" stroke-width="2" stroke-miterlimit="10"/>
<path d="M63.5 42.0149V29.6013M57.2932 35.8081H69.7067H57.2932Z" stroke="#8BD2BD" stroke-miterlimit="10"/>
<path d="M63.4996 12.4135V0M57.2928 6.20677H69.7063H57.2928Z" stroke="#8BD2BD" stroke-miterlimit="10"/>
<path d="M63.5 42.0149V29.6013M57.2932 35.8081H69.7067H57.2932Z" stroke="#1D262D" stroke-width="2" stroke-miterlimit="10"/>
<path d="M63.4996 12.4135V0M57.2928 6.20677H69.7063H57.2928Z" stroke="#1D262D" stroke-width="2" stroke-miterlimit="10"/>
<path d="M34.8535 42.0149V29.6013M28.6467 35.8081H41.0602H28.6467Z" stroke="#8BD2BD" stroke-miterlimit="10"/>
<path d="M34.8534 12.4135V0M28.6466 6.20677H41.0602H28.6466Z" stroke="#8BD2BD" stroke-miterlimit="10"/>
<path d="M34.8535 42.0149V29.6013M28.6467 35.8081H41.0602H28.6467Z" stroke="#1D262D" stroke-width="2" stroke-miterlimit="10"/>
<path d="M34.8534 12.4135V0M28.6466 6.20677H41.0602H28.6466Z" stroke="#1D262D" stroke-width="2" stroke-miterlimit="10"/>
<path d="M6.20673 42.0149V29.6013M-3.65973e-05 35.8081H12.4135H-3.65973e-05Z" stroke="#8BD2BD" stroke-miterlimit="10"/>
<path d="M6.20666 12.4135V0M-0.000105262 6.20677H12.4134H-0.000105262Z" stroke="#8BD2BD" stroke-miterlimit="10"/>
<path d="M6.20673 42.0149V29.6013M-3.65973e-05 35.8081H12.4135H-3.65973e-05Z" stroke="#1D262D" stroke-width="2" stroke-miterlimit="10"/>
<path d="M6.20666 12.4135V0M-0.000105262 6.20677H12.4134H-0.000105262Z" stroke="#1D262D" stroke-width="2" stroke-miterlimit="10"/>
</svg>
