<svg width="106" height="38" viewBox="0 0 106 38" fill="none" xmlns="http://www.w3.org/2000/svg">
<path d="M46.8295 3.67974C46.8295 1.6474 45.1819 -0.00014187 43.1496 -0.000141781C41.1173 -0.000141693 39.4697 1.6474 39.4697 3.67974C39.4697 5.71208 41.1173 7.35962 43.1496 7.35962C45.1819 7.35962 46.8295 5.71208 46.8295 3.67974Z" fill="#FFE031"/>
<path d="M66.5439 3.67974C66.5439 5.70687 64.9003 7.35962 62.8641 7.35962C60.8369 7.35962 59.1841 5.716 59.1841 3.67974C59.1841 1.64348 60.8278 -0.000141692 62.8641 -0.000141781C64.9003 -0.00014187 66.5439 1.64348 66.5439 3.67974Z" fill="#1D262D"/>
<path d="M86.2765 3.67974C86.2765 1.6474 84.629 -0.00014187 82.5966 -0.000141781C80.5643 -0.000141693 78.9167 1.6474 78.9167 3.67974C78.9167 5.71208 80.5643 7.35962 82.5966 7.35962C84.629 7.35962 86.2765 5.71208 86.2765 3.67974Z" fill="#FFE031"/>
<path d="M106 3.67974C106 1.6474 104.352 -0.00014187 102.32 -0.000141781C100.288 -0.000141693 98.6401 1.6474 98.6401 3.67974C98.6401 5.71208 100.288 7.35962 102.32 7.35962C104.352 7.35962 106 5.71208 106 3.67974Z" fill="#FFE031"/>
<path d="M27.1062 18.9197C27.1062 16.8874 25.4586 15.2398 23.4263 15.2398C21.3939 15.2398 19.7464 16.8874 19.7464 18.9197C19.7464 20.9521 21.3939 22.5996 23.4263 22.5996C25.4586 22.5996 27.1062 20.9521 27.1062 18.9197Z" fill="#FFE031"/>
<path d="M46.8295 18.9197C46.8295 16.8874 45.1819 15.2398 43.1496 15.2398C41.1173 15.2398 39.4697 16.8874 39.4697 18.9197C39.4697 20.9521 41.1173 22.5996 43.1496 22.5996C45.1819 22.5996 46.8295 20.9521 46.8295 18.9197Z" stroke="#FFE031" stroke-miterlimit="10"/>
<path d="M66.5439 18.9197C66.5439 20.9469 64.9003 22.5996 62.8641 22.5996C60.8369 22.5996 59.1841 20.956 59.1841 18.9197C59.1841 16.8835 60.8278 15.2398 62.8641 15.2398C64.9003 15.2398 66.5439 16.8835 66.5439 18.9197Z" fill="#FFE031"/>
<path d="M86.2765 18.9197C86.2765 16.8874 84.629 15.2398 82.5966 15.2398C80.5643 15.2398 78.9167 16.8874 78.9167 18.9197C78.9167 20.9521 80.5643 22.5996 82.5966 22.5996C84.629 22.5996 86.2765 20.9521 86.2765 18.9197Z" fill="#FFE031"/>
<path d="M106 18.9197C106 16.8874 104.352 15.2398 102.32 15.2398C100.288 15.2398 98.6401 16.8874 98.6401 18.9197C98.6401 20.9521 100.288 22.5996 102.32 22.5996C104.352 22.5996 106 20.9521 106 18.9197Z" fill="#FFE031"/>
<path d="M7.38271 34.1507C7.38271 36.1778 5.73909 37.8306 3.70283 37.8306C1.6757 37.8306 0.0229491 36.1869 0.0229491 34.1507C0.022949 32.1236 1.66657 30.4708 3.70283 30.4708C5.72996 30.4708 7.38271 32.1236 7.38271 34.1507Z" fill="#FFE031"/>
<path d="M27.1062 34.1507C27.1062 32.1183 25.4586 30.4708 23.4263 30.4708C21.3939 30.4708 19.7464 32.1183 19.7464 34.1507C19.7464 36.183 21.3939 37.8306 23.4263 37.8306C25.4586 37.8306 27.1062 36.183 27.1062 34.1507Z" fill="#FFE031"/>
<path d="M46.8297 34.1507C46.8297 32.1183 45.1821 30.4708 43.1498 30.4708C41.1174 30.4708 39.4699 32.1183 39.4699 34.1507C39.4699 36.183 41.1174 37.8306 43.1498 37.8306C45.1821 37.8306 46.8297 36.183 46.8297 34.1507Z" fill="#FFE031"/>
<path d="M66.5439 34.1507C66.5439 36.1778 64.9003 37.8306 62.8641 37.8306C60.8369 37.8306 59.1841 36.1869 59.1841 34.1507C59.1841 32.1236 60.8278 30.4708 62.8641 30.4708C64.9003 30.4708 66.5439 32.1236 66.5439 34.1507Z" fill="#FFE031"/>
<path d="M86.2765 34.1507C86.2765 32.1183 84.629 30.4708 82.5966 30.4708C80.5643 30.4708 78.9167 32.1183 78.9167 34.1507C78.9167 36.183 80.5643 37.8306 82.5966 37.8306C84.629 37.8306 86.2765 36.183 86.2765 34.1507Z" fill="#FFE031"/>
<path d="M106 34.1507C106 32.1183 104.352 30.4708 102.32 30.4708C100.288 30.4708 98.6401 32.1183 98.6401 34.1507C98.6401 36.183 100.288 37.8306 102.32 37.8306C104.352 37.8306 106 36.183 106 34.1507Z" fill="#FFE031"/>
</svg>
