<svg width="127" height="70" viewBox="0 0 127 70" fill="none" xmlns="http://www.w3.org/2000/svg">
<path d="M8.65932 4.35357C8.65932 6.3807 7.0157 8.03345 4.97944 8.03345C2.94318 8.03345 1.29956 6.38983 1.29956 4.35357C1.29956 2.32644 2.94318 0.673686 4.97944 0.673686C7.0157 0.673686 8.65932 2.3173 8.65932 4.35357Z" fill="#FFE031"/>
<path d="M28.3828 4.35357C28.3828 6.3807 26.7392 8.03345 24.7029 8.03345C22.6758 8.03345 21.023 6.38983 21.023 4.35357C21.023 2.32644 22.6666 0.673686 24.7029 0.673686C26.73 0.673686 28.3828 2.3173 28.3828 4.35357Z" fill="#FFE031"/>
<path d="M48.1061 4.35357C48.1061 6.3807 46.4625 8.03345 44.4262 8.03345C42.39 8.03345 40.7463 6.38983 40.7463 4.35357C40.7463 2.32644 42.39 0.673686 44.4262 0.673686C46.4625 0.673686 48.1061 2.3173 48.1061 4.35357Z" fill="#FFE031"/>
<path d="M67.8206 4.35357C67.8206 6.3807 66.177 8.03345 64.1407 8.03345C62.1044 8.03345 60.4608 6.38983 60.4608 4.35357C60.4608 2.32644 62.1044 0.673686 64.1407 0.673686C66.177 0.673686 67.8206 2.3173 67.8206 4.35357Z" fill="#1D262D"/>
<path d="M87.5439 4.35357C87.5439 6.3807 85.9003 8.03345 83.8641 8.03345C81.8369 8.03345 80.1841 6.38983 80.1841 4.35357C80.1841 2.32644 81.8278 0.673686 83.8641 0.673686C85.9003 0.673686 87.5439 2.3173 87.5439 4.35357Z" fill="#FFE031"/>
<path d="M107.267 4.35357C107.267 6.3807 105.624 8.03345 103.587 8.03345C101.551 8.03345 99.9076 6.38983 99.9076 4.35357C99.9076 2.32644 101.551 0.673686 103.587 0.673686C105.624 0.673686 107.267 2.3173 107.267 4.35357Z" fill="#FFE031"/>
<path d="M126.991 4.35357C126.991 6.3807 125.347 8.03345 123.311 8.03345C121.275 8.03345 119.631 6.38983 119.631 4.35357C119.631 2.32644 121.275 0.673686 123.311 0.673686C125.347 0.673686 126.991 2.3173 126.991 4.35357Z" fill="#1D262D"/>
<path d="M8.65932 19.5848C8.65932 17.5524 7.01178 15.9049 4.97944 15.9049C2.9471 15.9049 1.29956 17.5524 1.29956 19.5848C1.29956 21.6171 2.9471 23.2646 4.97944 23.2646C7.01178 23.2646 8.65932 21.6171 8.65932 19.5848Z" fill="#FFE031"/>
<path d="M28.3828 19.5848C28.3828 21.6119 26.7392 23.2646 24.7029 23.2646C22.6758 23.2646 21.023 21.621 21.023 19.5848C21.023 17.5576 22.6666 15.9049 24.7029 15.9049C26.73 15.9049 28.3828 17.5576 28.3828 19.5848Z" stroke="#FFE031" stroke-miterlimit="10"/>
<path d="M48.1061 19.5848C48.1061 17.5524 46.4586 15.9049 44.4262 15.9049C42.3939 15.9049 40.7463 17.5524 40.7463 19.5848C40.7463 21.6171 42.3939 23.2646 44.4262 23.2646C46.4586 23.2646 48.1061 21.6171 48.1061 19.5848Z" fill="#FFE031"/>
<path d="M67.8295 19.5848C67.8295 17.5524 66.182 15.9049 64.1497 15.9049C62.1173 15.9049 60.4698 17.5524 60.4698 19.5848C60.4698 21.6171 62.1173 23.2646 64.1497 23.2646C66.182 23.2646 67.8295 21.6171 67.8295 19.5848Z" fill="#FFE031"/>
<path d="M87.5439 19.5848C87.5439 21.6119 85.9003 23.2646 83.8641 23.2646C81.8369 23.2646 80.1841 21.621 80.1841 19.5848C80.1841 17.5576 81.8278 15.9049 83.8641 15.9049C85.9003 15.9049 87.5439 17.5576 87.5439 19.5848Z" fill="#FFE031"/>
<path d="M107.276 19.5848C107.276 17.5524 105.629 15.9049 103.597 15.9049C101.564 15.9049 99.9167 17.5524 99.9167 19.5848C99.9167 21.6171 101.564 23.2646 103.597 23.2646C105.629 23.2646 107.276 21.6171 107.276 19.5848Z" stroke="#FFE031" stroke-miterlimit="10"/>
<path d="M127 19.5848C127 17.5524 125.352 15.9049 123.32 15.9049C121.288 15.9049 119.64 17.5524 119.64 19.5848C119.64 21.6171 121.288 23.2646 123.32 23.2646C125.352 23.2646 127 21.6171 127 19.5848Z" fill="#FFE031"/>
<path d="M8.65932 34.8248C8.65932 32.7924 7.01178 31.1449 4.97944 31.1449C2.9471 31.1449 1.29956 32.7924 1.29956 34.8248C1.29956 36.8571 2.9471 38.5046 4.97944 38.5046C7.01178 38.5046 8.65932 36.8571 8.65932 34.8248Z" fill="#FFE031"/>
<path d="M28.3828 34.8248C28.3828 36.8519 26.7392 38.5046 24.7029 38.5046C22.6758 38.5046 21.023 36.861 21.023 34.8248C21.023 32.7885 22.6666 31.1449 24.7029 31.1449C26.73 31.1449 28.3828 32.7885 28.3828 34.8248Z" fill="#FFE031"/>
<path d="M48.1061 34.8248C48.1061 32.7924 46.4586 31.1449 44.4262 31.1449C42.3939 31.1449 40.7463 32.7924 40.7463 34.8248C40.7463 36.8571 42.3939 38.5046 44.4262 38.5046C46.4586 38.5046 48.1061 36.8571 48.1061 34.8248Z" fill="#FFE031"/>
<path d="M67.8295 34.8248C67.8295 32.7924 66.182 31.1449 64.1497 31.1449C62.1173 31.1449 60.4698 32.7924 60.4698 34.8248C60.4698 36.8571 62.1173 38.5046 64.1497 38.5046C66.182 38.5046 67.8295 36.8571 67.8295 34.8248Z" fill="#FFE031"/>
<path d="M87.5439 34.8248C87.5439 36.8519 85.9003 38.5046 83.8641 38.5046C81.8369 38.5046 80.1841 36.861 80.1841 34.8248C80.1841 32.7885 81.8278 31.1449 83.8641 31.1449C85.9003 31.1449 87.5439 32.7885 87.5439 34.8248Z" fill="#1D262D"/>
<path d="M107.276 34.8248C107.276 32.7924 105.629 31.1449 103.597 31.1449C101.564 31.1449 99.9167 32.7924 99.9167 34.8248C99.9167 36.8571 101.564 38.5046 103.597 38.5046C105.629 38.5046 107.276 36.8571 107.276 34.8248Z" fill="#FFE031"/>
<path d="M127 34.8248C127 32.7924 125.352 31.1449 123.32 31.1449C121.288 31.1449 119.64 32.7924 119.64 34.8248C119.64 36.8571 121.288 38.5046 123.32 38.5046C125.352 38.5046 127 36.8571 127 34.8248Z" fill="#FFE031"/>
<path d="M8.65932 50.0647C8.65932 48.0324 7.01178 46.3849 4.97944 46.3849C2.9471 46.3849 1.29956 48.0324 1.29956 50.0647C1.29956 52.0971 2.9471 53.7446 4.97944 53.7446C7.01178 53.7446 8.65932 52.0971 8.65932 50.0647Z" fill="#FFE031"/>
<path d="M28.3828 50.0647C28.3828 52.0919 26.7392 53.7446 24.7029 53.7446C22.6758 53.7446 21.023 52.101 21.023 50.0647C21.023 48.0285 22.6666 46.3849 24.7029 46.3849C26.73 46.3849 28.3828 48.0285 28.3828 50.0647Z" fill="#1D262D"/>
<path d="M48.1061 50.0647C48.1061 48.0324 46.4586 46.3849 44.4262 46.3849C42.3939 46.3849 40.7463 48.0324 40.7463 50.0647C40.7463 52.0971 42.3939 53.7446 44.4262 53.7446C46.4586 53.7446 48.1061 52.0971 48.1061 50.0647Z" fill="#FFE031"/>
<path d="M67.8295 50.0647C67.8295 48.0324 66.182 46.3849 64.1497 46.3849C62.1173 46.3849 60.4698 48.0324 60.4698 50.0647C60.4698 52.0971 62.1173 53.7446 64.1497 53.7446C66.182 53.7446 67.8295 52.0971 67.8295 50.0647Z" stroke="#FFE031" stroke-miterlimit="10"/>
<path d="M87.5439 50.0647C87.5439 52.0919 85.9003 53.7446 83.8641 53.7446C81.8369 53.7446 80.1841 52.101 80.1841 50.0647C80.1841 48.0285 81.8278 46.3849 83.8641 46.3849C85.9003 46.3849 87.5439 48.0285 87.5439 50.0647Z" fill="#FFE031"/>
<path d="M107.276 50.0647C107.276 48.0324 105.629 46.3849 103.597 46.3849C101.564 46.3849 99.9167 48.0324 99.9167 50.0647C99.9167 52.0971 101.564 53.7446 103.597 53.7446C105.629 53.7446 107.276 52.0971 107.276 50.0647Z" fill="#FFE031"/>
<path d="M127 50.0647C127 48.0324 125.352 46.3849 123.32 46.3849C121.288 46.3849 119.64 48.0324 119.64 50.0647C119.64 52.0971 121.288 53.7446 123.32 53.7446C125.352 53.7446 127 52.0971 127 50.0647Z" fill="#FFE031"/>
<path d="M8.65932 65.2957C8.65932 63.2634 7.01178 61.6158 4.97944 61.6158C2.9471 61.6158 1.29956 63.2634 1.29956 65.2957C1.29956 67.328 2.9471 68.9756 4.97944 68.9756C7.01178 68.9756 8.65932 67.328 8.65932 65.2957Z" stroke="#FFE031" stroke-miterlimit="10"/>
<path d="M28.3828 65.2957C28.3828 67.3228 26.7392 68.9756 24.7029 68.9756C22.6758 68.9756 21.023 67.332 21.023 65.2957C21.023 63.2686 22.6666 61.6158 24.7029 61.6158C26.73 61.6158 28.3828 63.2686 28.3828 65.2957Z" fill="#FFE031"/>
<path d="M48.1061 65.2957C48.1061 63.2634 46.4586 61.6158 44.4262 61.6158C42.3939 61.6158 40.7463 63.2634 40.7463 65.2957C40.7463 67.328 42.3939 68.9756 44.4262 68.9756C46.4586 68.9756 48.1061 67.328 48.1061 65.2957Z" fill="#FFE031"/>
<path d="M67.8297 65.2957C67.8297 63.2634 66.1821 61.6158 64.1498 61.6158C62.1174 61.6158 60.4699 63.2634 60.4699 65.2957C60.4699 67.328 62.1174 68.9756 64.1498 68.9756C66.1821 68.9756 67.8297 67.328 67.8297 65.2957Z" fill="#FFE031"/>
<path d="M87.544 65.2957C87.544 67.3228 85.9004 68.9756 83.8641 68.9756C81.837 68.9756 80.1842 67.332 80.1842 65.2957C80.1842 63.2686 81.8279 61.6158 83.8641 61.6158C85.9004 61.6158 87.544 63.2686 87.544 65.2957Z" fill="#FFE031"/>
<path d="M107.276 65.2957C107.276 63.2634 105.629 61.6158 103.597 61.6158C101.564 61.6158 99.9167 63.2634 99.9167 65.2957C99.9167 67.328 101.564 68.9756 103.597 68.9756C105.629 68.9756 107.276 67.328 107.276 65.2957Z" fill="#FFE031"/>
<path d="M127 65.2957C127 63.2634 125.352 61.6158 123.32 61.6158C121.288 61.6158 119.64 63.2634 119.64 65.2957C119.64 67.328 121.288 68.9756 123.32 68.9756C125.352 68.9756 127 67.328 127 65.2957Z" fill="#FFE031"/>
</svg>
