<svg width="127" height="70" viewBox="0 0 127 70" fill="none" xmlns="http://www.w3.org/2000/svg">
<path d="M47.8065 4.51177C47.8065 6.5389 46.1629 8.19165 44.1267 8.19165C42.0904 8.19165 40.4468 6.54803 40.4468 4.51177C40.4468 2.48464 42.0904 0.83189 44.1267 0.831889C46.1629 0.831889 47.8065 2.47551 47.8065 4.51177Z" fill="#FFE031"/>
<path d="M67.521 4.51177C67.521 6.5389 65.8774 8.19165 63.8411 8.19165C61.8049 8.19165 60.1613 6.54803 60.1613 4.51177C60.1613 2.48464 61.8049 0.83189 63.8411 0.831889C65.8774 0.831889 67.521 2.47551 67.521 4.51177Z" fill="#1D262D"/>
<path d="M87.2444 4.51177C87.2444 6.5389 85.6008 8.19165 83.5646 8.19165C81.5374 8.19165 79.8846 6.54803 79.8846 4.51177C79.8846 2.48464 81.5283 0.83189 83.5646 0.831889C85.6008 0.831889 87.2444 2.47551 87.2444 4.51177Z" fill="#FFE031"/>
<path d="M106.968 4.51177C106.968 6.5389 105.324 8.19165 103.288 8.19165C101.252 8.19165 99.608 6.54803 99.608 4.51177C99.608 2.48464 101.252 0.83189 103.288 0.831889C105.324 0.831889 106.968 2.47551 106.968 4.51177Z" fill="#FFE031"/>
<path d="M126.691 4.51177C126.691 6.5389 125.048 8.19165 123.011 8.19165C120.975 8.19165 119.331 6.54803 119.331 4.51177C119.331 2.48464 120.975 0.83189 123.011 0.831889C125.048 0.831889 126.691 2.47551 126.691 4.51177Z" fill="#1D262D"/>
<path d="M28.0831 19.743C28.0831 21.7701 26.4395 23.4229 24.4032 23.4229C22.3761 23.4229 20.7233 21.7792 20.7233 19.743C20.7233 17.7158 22.3669 16.0631 24.4032 16.0631C26.4303 16.0631 28.0831 17.7158 28.0831 19.743Z" stroke="#FFE031" stroke-miterlimit="10"/>
<path d="M47.8065 19.743C47.8065 17.7106 46.159 16.0631 44.1267 16.0631C42.0943 16.0631 40.4468 17.7106 40.4468 19.743C40.4468 21.7753 42.0943 23.4229 44.1267 23.4229C46.159 23.4229 47.8065 21.7753 47.8065 19.743Z" fill="#FFE031"/>
<path d="M67.53 19.743C67.53 17.7106 65.8824 16.0631 63.8501 16.0631C61.8178 16.0631 60.1702 17.7106 60.1702 19.743C60.1702 21.7753 61.8178 23.4229 63.8501 23.4229C65.8824 23.4229 67.53 21.7753 67.53 19.743Z" fill="#FFE031"/>
<path d="M87.2444 19.743C87.2444 21.7701 85.6008 23.4229 83.5646 23.4229C81.5374 23.4229 79.8846 21.7792 79.8846 19.743C79.8846 17.7158 81.5283 16.0631 83.5646 16.0631C85.6008 16.0631 87.2444 17.7158 87.2444 19.743Z" fill="#FFE031"/>
<path d="M106.977 19.743C106.977 17.7106 105.329 16.0631 103.297 16.0631C101.265 16.0631 99.6172 17.7106 99.6172 19.743C99.6172 21.7753 101.265 23.4229 103.297 23.4229C105.329 23.4229 106.977 21.7753 106.977 19.743Z" stroke="#FFE031" stroke-miterlimit="10"/>
<path d="M126.7 19.743C126.7 17.7106 125.053 16.0631 123.02 16.0631C120.988 16.0631 119.341 17.7106 119.341 19.743C119.341 21.7753 120.988 23.4229 123.02 23.4229C125.053 23.4229 126.7 21.7753 126.7 19.743Z" fill="#FFE031"/>
<path d="M8.35976 34.9828C8.35976 32.9505 6.71222 31.303 4.67988 31.303C2.64754 31.303 1 32.9505 1 34.9828C1 37.0152 2.64754 38.6627 4.67988 38.6627C6.71222 38.6627 8.35976 37.0152 8.35976 34.9828Z" fill="#FFE031"/>
<path d="M28.0831 34.9828C28.0831 37.01 26.4395 38.6627 24.4032 38.6627C22.3761 38.6627 20.7233 37.0191 20.7233 34.9828C20.7233 32.9466 22.3669 31.303 24.4032 31.303C26.4303 31.303 28.0831 32.9466 28.0831 34.9828Z" fill="#FFE031"/>
<path d="M47.8065 34.9828C47.8065 32.9505 46.159 31.303 44.1267 31.303C42.0943 31.303 40.4468 32.9505 40.4468 34.9828C40.4468 37.0152 42.0943 38.6627 44.1267 38.6627C46.159 38.6627 47.8065 37.0152 47.8065 34.9828Z" fill="#FFE031"/>
<path d="M67.53 34.9828C67.53 32.9505 65.8824 31.303 63.8501 31.303C61.8178 31.303 60.1702 32.9505 60.1702 34.9828C60.1702 37.0152 61.8178 38.6627 63.8501 38.6627C65.8824 38.6627 67.53 37.0152 67.53 34.9828Z" fill="#FFE031"/>
<path d="M87.2444 34.9828C87.2444 37.01 85.6008 38.6627 83.5646 38.6627C81.5374 38.6627 79.8846 37.0191 79.8846 34.9828C79.8846 32.9466 81.5283 31.303 83.5646 31.303C85.6008 31.303 87.2444 32.9466 87.2444 34.9828Z" fill="#1D262D"/>
<path d="M106.977 34.9828C106.977 32.9505 105.329 31.303 103.297 31.303C101.265 31.303 99.6172 32.9505 99.6172 34.9828C99.6172 37.0152 101.265 38.6627 103.297 38.6627C105.329 38.6627 106.977 37.0152 106.977 34.9828Z" fill="#FFE031"/>
<path d="M126.7 34.9828C126.7 32.9505 125.053 31.303 123.02 31.303C120.988 31.303 119.341 32.9505 119.341 34.9828C119.341 37.0152 120.988 38.6627 123.02 38.6627C125.053 38.6627 126.7 37.0152 126.7 34.9828Z" fill="#FFE031"/>
<path d="M8.35976 50.2231C8.35976 48.1907 6.71222 46.5432 4.67988 46.5432C2.64754 46.5432 1 48.1907 1 50.2231C1 52.2554 2.64754 53.903 4.67988 53.903C6.71222 53.903 8.35976 52.2554 8.35976 50.2231Z" fill="#FFE031"/>
<path d="M28.0831 50.2231C28.0831 52.2502 26.4395 53.903 24.4032 53.903C22.3761 53.903 20.7233 52.2593 20.7233 50.2231C20.7233 48.1868 22.3669 46.5432 24.4032 46.5432C26.4303 46.5432 28.0831 48.1868 28.0831 50.2231Z" fill="#1D262D"/>
<path d="M47.8065 50.2231C47.8065 48.1907 46.159 46.5432 44.1267 46.5432C42.0943 46.5432 40.4468 48.1907 40.4468 50.2231C40.4468 52.2554 42.0943 53.903 44.1267 53.903C46.159 53.903 47.8065 52.2554 47.8065 50.2231Z" fill="#FFE031"/>
<path d="M67.53 50.2231C67.53 48.1907 65.8824 46.5432 63.8501 46.5432C61.8178 46.5432 60.1702 48.1907 60.1702 50.2231C60.1702 52.2554 61.8178 53.903 63.8501 53.903C65.8824 53.903 67.53 52.2554 67.53 50.2231Z" stroke="#FFE031" stroke-miterlimit="10"/>
<path d="M87.2444 50.2231C87.2444 52.2502 85.6008 53.903 83.5646 53.903C81.5374 53.903 79.8846 52.2593 79.8846 50.2231C79.8846 48.1868 81.5283 46.5432 83.5646 46.5432C85.6008 46.5432 87.2444 48.1868 87.2444 50.2231Z" fill="#FFE031"/>
<path d="M106.977 50.2231C106.977 48.1907 105.329 46.5432 103.297 46.5432C101.265 46.5432 99.6172 48.1907 99.6172 50.2231C99.6172 52.2554 101.265 53.903 103.297 53.903C105.329 53.903 106.977 52.2554 106.977 50.2231Z" fill="#FFE031"/>
<path d="M126.7 50.2231C126.7 48.1907 125.053 46.5432 123.02 46.5432C120.988 46.5432 119.341 48.1907 119.341 50.2231C119.341 52.2554 120.988 53.903 123.02 53.903C125.053 53.903 126.7 52.2554 126.7 50.2231Z" fill="#FFE031"/>
<path d="M8.35976 65.4539C8.35976 63.4216 6.71222 61.774 4.67988 61.774C2.64754 61.774 1 63.4216 1 65.4539C1 67.4863 2.64754 69.1338 4.67988 69.1338C6.71222 69.1338 8.35976 67.4863 8.35976 65.4539Z" stroke="#FFE031" stroke-miterlimit="10"/>
<path d="M28.0831 65.4539C28.0831 67.481 26.4395 69.1338 24.4032 69.1338C22.3761 69.1338 20.7233 67.4902 20.7233 65.4539C20.7233 63.4268 22.3669 61.774 24.4032 61.774C26.4303 61.774 28.0831 63.4268 28.0831 65.4539Z" fill="#FFE031"/>
<path d="M47.8065 65.4539C47.8065 63.4216 46.159 61.774 44.1267 61.774C42.0943 61.774 40.4468 63.4216 40.4468 65.4539C40.4468 67.4863 42.0943 69.1338 44.1267 69.1338C46.159 69.1338 47.8065 67.4863 47.8065 65.4539Z" fill="#FFE031"/>
<path d="M67.5302 65.4539C67.5302 63.4216 65.8826 61.774 63.8503 61.774C61.8179 61.774 60.1704 63.4216 60.1704 65.4539C60.1704 67.4863 61.8179 69.1338 63.8503 69.1338C65.8826 69.1338 67.5302 67.4863 67.5302 65.4539Z" fill="#FFE031"/>
<path d="M87.2444 65.4539C87.2444 67.481 85.6008 69.1338 83.5646 69.1338C81.5374 69.1338 79.8846 67.4902 79.8846 65.4539C79.8846 63.4268 81.5283 61.774 83.5646 61.774C85.6008 61.774 87.2444 63.4268 87.2444 65.4539Z" fill="#FFE031"/>
<path d="M106.977 65.4539C106.977 63.4216 105.329 61.774 103.297 61.774C101.265 61.774 99.6172 63.4216 99.6172 65.4539C99.6172 67.4863 101.265 69.1338 103.297 69.1338C105.329 69.1338 106.977 67.4863 106.977 65.4539Z" fill="#FFE031"/>
<path d="M126.7 65.4539C126.7 63.4216 125.053 61.774 123.021 61.774C120.988 61.774 119.341 63.4216 119.341 65.4539C119.341 67.4863 120.988 69.1338 123.021 69.1338C125.053 69.1338 126.7 67.4863 126.7 65.4539Z" fill="#FFE031"/>
</svg>
