<svg width="68" height="55" viewBox="0 0 68 55" fill="none" xmlns="http://www.w3.org/2000/svg">
<path d="M59.5634 4.596C59.5634 2.56366 61.2109 0.916118 63.2433 0.916118C65.2756 0.916118 66.9232 2.56366 66.9232 4.596C66.9232 6.62834 65.2756 8.27588 63.2433 8.27588C61.2109 8.27588 59.5634 6.62834 59.5634 4.596Z" fill="#FFE031"/>
<path d="M59.5634 19.8357C59.5634 17.8034 61.2109 16.1559 63.2433 16.1559C65.2756 16.1559 66.9232 17.8034 66.9232 19.8357C66.9232 21.8681 65.2756 23.5156 63.2433 23.5156C61.2109 23.5156 59.5634 21.8681 59.5634 19.8357Z" fill="#FFE031"/>
<path d="M39.8399 19.8357C39.8399 21.8629 41.4835 23.5156 43.5198 23.5156C45.5469 23.5156 47.1996 21.872 47.1996 19.8357C47.1996 17.7995 45.556 16.1559 43.5198 16.1559C41.4926 16.1559 39.8399 17.7995 39.8399 19.8357Z" fill="#FFE031"/>
<path d="M59.5634 35.0757C59.5634 33.0434 61.2109 31.3959 63.2433 31.3959C65.2756 31.3959 66.9232 33.0434 66.9232 35.0757C66.9232 37.1081 65.2756 38.7556 63.2433 38.7556C61.2109 38.7556 59.5634 37.1081 59.5634 35.0757Z" fill="#FFE031"/>
<path d="M39.8399 35.0757C39.8399 37.1029 41.4836 38.7556 43.5198 38.7556C45.547 38.7556 47.1997 37.112 47.1997 35.0757C47.1997 33.0395 45.5561 31.3959 43.5198 31.3959C41.4927 31.3959 39.8399 33.0395 39.8399 35.0757Z" fill="#1D262D"/>
<path d="M20.1166 35.0757C20.1166 33.0434 21.7642 31.3959 23.7965 31.3959C25.8288 31.3959 27.4764 33.0434 27.4764 35.0757C27.4764 37.1081 25.8288 38.7556 23.7965 38.7556C21.7642 38.7556 20.1166 37.1081 20.1166 35.0757Z" fill="#FFE031"/>
<path d="M59.5634 50.3067C59.5634 48.2743 61.2109 46.6268 63.2433 46.6268C65.2756 46.6268 66.9232 48.2743 66.9232 50.3067C66.9232 52.339 65.2756 53.9866 63.2433 53.9866C61.2109 53.9866 59.5634 52.339 59.5634 50.3067Z" stroke="#FFE031" stroke-miterlimit="10"/>
<path d="M39.8399 50.3067C39.8399 52.3338 41.4836 53.9866 43.5198 53.9866C45.547 53.9866 47.1997 52.343 47.1997 50.3067C47.1997 48.2796 45.5561 46.6268 43.5198 46.6268C41.4927 46.6268 39.8399 48.2796 39.8399 50.3067Z" fill="#FFE031"/>
<path d="M20.1166 50.3067C20.1166 48.2743 21.7642 46.6268 23.7965 46.6268C25.8288 46.6268 27.4764 48.2743 27.4764 50.3067C27.4764 52.339 25.8288 53.9866 23.7965 53.9866C21.7642 53.9866 20.1166 52.339 20.1166 50.3067Z" fill="#FFE031"/>
<path d="M0.393047 50.3067C0.393047 48.2743 2.04059 46.6268 4.07293 46.6268C6.10527 46.6268 7.75281 48.2743 7.75281 50.3067C7.75281 52.339 6.10527 53.9866 4.07293 53.9866C2.04059 53.9866 0.393047 52.339 0.393047 50.3067Z" fill="#FFE031"/>
</svg>
