<svg width="127" height="70" viewBox="0 0 127 70" fill="none" xmlns="http://www.w3.org/2000/svg">
<path d="M8.65932 19.7408C8.65932 17.7084 7.01178 16.0609 4.97944 16.0609C2.9471 16.0609 1.29956 17.7084 1.29956 19.7408C1.29956 21.7731 2.9471 23.4207 4.97944 23.4207C7.01178 23.4207 8.65932 21.7731 8.65932 19.7408Z" fill="#FFE031"/>
<path d="M8.65932 34.9805C8.65932 32.9482 7.01178 31.3006 4.97944 31.3006C2.9471 31.3006 1.29956 32.9482 1.29956 34.9805C1.29956 37.0129 2.9471 38.6604 4.97944 38.6604C7.01178 38.6604 8.65932 37.0129 8.65932 34.9805Z" fill="#FFE031"/>
<path d="M28.3828 34.9805C28.3828 37.0077 26.7392 38.6604 24.703 38.6604C22.6758 38.6604 21.0231 37.0168 21.0231 34.9805C21.0231 32.9443 22.6667 31.3006 24.703 31.3006C26.7301 31.3006 28.3828 32.9443 28.3828 34.9805Z" fill="#FFE031"/>
<path d="M8.65932 50.2206C8.65932 48.1883 7.01178 46.5408 4.97944 46.5408C2.9471 46.5408 1.29956 48.1883 1.29956 50.2206C1.29956 52.253 2.9471 53.9005 4.97944 53.9005C7.01178 53.9005 8.65932 52.253 8.65932 50.2206Z" fill="#FFE031"/>
<path d="M28.3828 50.2206C28.3828 52.2478 26.7392 53.9005 24.7029 53.9005C22.6758 53.9005 21.023 52.2569 21.023 50.2206C21.023 48.1844 22.6666 46.5408 24.7029 46.5408C26.73 46.5408 28.3828 48.1844 28.3828 50.2206Z" fill="#1D262D"/>
<path d="M48.1061 50.2206C48.1061 48.1883 46.4586 46.5408 44.4262 46.5408C42.3939 46.5408 40.7463 48.1883 40.7463 50.2206C40.7463 52.253 42.3939 53.9005 44.4262 53.9005C46.4586 53.9005 48.1061 52.253 48.1061 50.2206Z" fill="#FFE031"/>
<path d="M8.65932 65.4515C8.65932 63.4191 7.01178 61.7716 4.97944 61.7716C2.9471 61.7716 1.29956 63.4191 1.29956 65.4515C1.29956 67.4838 2.9471 69.1313 4.97944 69.1313C7.01178 69.1313 8.65932 67.4838 8.65932 65.4515Z" stroke="#FFE031" stroke-miterlimit="10"/>
<path d="M28.3828 65.4515C28.3828 67.4786 26.7392 69.1313 24.7029 69.1313C22.6758 69.1313 21.023 67.4877 21.023 65.4515C21.023 63.4243 22.6666 61.7716 24.7029 61.7716C26.73 61.7716 28.3828 63.4243 28.3828 65.4515Z" fill="#FFE031"/>
<path d="M48.1061 65.4515C48.1061 63.4191 46.4586 61.7716 44.4262 61.7716C42.3939 61.7716 40.7463 63.4191 40.7463 65.4515C40.7463 67.4838 42.3939 69.1313 44.4262 69.1313C46.4586 69.1313 48.1061 67.4838 48.1061 65.4515Z" fill="#FFE031"/>
<path d="M67.8297 65.4515C67.8297 63.4191 66.1821 61.7716 64.1498 61.7716C62.1174 61.7716 60.4699 63.4191 60.4699 65.4515C60.4699 67.4838 62.1174 69.1313 64.1498 69.1313C66.1821 69.1313 67.8297 67.4838 67.8297 65.4515Z" fill="#FFE031"/>
<path d="M8.65926 4.49883C8.65926 6.52596 7.01564 8.17871 4.97938 8.17871C2.94312 8.17871 1.2995 6.53509 1.2995 4.49883C1.2995 2.4717 2.94312 0.81895 4.97938 0.81895C7.01564 0.81895 8.65926 2.46257 8.65926 4.49883Z" fill="#FFE031"/>
<path d="M28.3826 4.49883C28.3826 6.52596 26.739 8.17871 24.7028 8.17871C22.6756 8.17871 21.0229 6.53509 21.0229 4.49883C21.0229 2.4717 22.6665 0.81895 24.7028 0.81895C26.7299 0.81895 28.3826 2.46257 28.3826 4.49883Z" fill="#FFE031"/>
<path d="M48.106 4.49883C48.106 6.52596 46.4624 8.17871 44.4262 8.17871C42.3899 8.17871 40.7463 6.53509 40.7463 4.49883C40.7463 2.4717 42.3899 0.81895 44.4262 0.81895C46.4624 0.81895 48.106 2.46257 48.106 4.49883Z" fill="#FFE031"/>
<path d="M67.8205 4.49883C67.8205 6.52596 66.1769 8.17871 64.1406 8.17871C62.1044 8.17871 60.4608 6.53509 60.4608 4.49883C60.4608 2.4717 62.1044 0.81895 64.1406 0.81895C66.1769 0.81895 67.8205 2.46257 67.8205 4.49883Z" fill="#1D262D"/>
<path d="M87.544 4.49883C87.544 6.52596 85.9004 8.17871 83.8641 8.17871C81.837 8.17871 80.1842 6.53509 80.1842 4.49883C80.1842 2.4717 81.8279 0.81895 83.8641 0.81895C85.9004 0.81895 87.544 2.46257 87.544 4.49883Z" fill="#FFE031"/>
<path d="M107.267 4.49883C107.267 6.52596 105.624 8.17871 103.587 8.17871C101.551 8.17871 99.9075 6.53509 99.9075 4.49883C99.9075 2.4717 101.551 0.81895 103.587 0.81895C105.624 0.81895 107.267 2.46257 107.267 4.49883Z" fill="#FFE031"/>
<path d="M126.991 4.49883C126.991 6.52596 125.347 8.17871 123.311 8.17871C121.274 8.17871 119.631 6.53509 119.631 4.49883C119.631 2.4717 121.274 0.81895 123.311 0.81895C125.347 0.81895 126.991 2.46257 126.991 4.49883Z" fill="#1D262D"/>
<path d="M28.3826 19.73C28.3826 21.7572 26.739 23.4099 24.7028 23.4099C22.6756 23.4099 21.0229 21.7663 21.0229 19.73C21.0229 17.7029 22.6665 16.0502 24.7028 16.0502C26.7299 16.0502 28.3826 17.7029 28.3826 19.73Z" stroke="#FFE031" stroke-miterlimit="10"/>
<path d="M48.106 19.73C48.106 17.6977 46.4585 16.0502 44.4262 16.0502C42.3938 16.0502 40.7463 17.6977 40.7463 19.73C40.7463 21.7624 42.3938 23.4099 44.4262 23.4099C46.4585 23.4099 48.106 21.7624 48.106 19.73Z" fill="#FFE031"/>
<path d="M67.8295 19.73C67.8295 17.6977 66.1819 16.0502 64.1496 16.0502C62.1173 16.0502 60.4697 17.6977 60.4697 19.73C60.4697 21.7624 62.1173 23.4099 64.1496 23.4099C66.1819 23.4099 67.8295 21.7624 67.8295 19.73Z" fill="#FFE031"/>
<path d="M87.544 19.73C87.544 21.7572 85.9004 23.4099 83.8641 23.4099C81.837 23.4099 80.1842 21.7663 80.1842 19.73C80.1842 17.7029 81.8279 16.0502 83.8641 16.0502C85.9004 16.0502 87.544 17.7029 87.544 19.73Z" fill="#FFE031"/>
<path d="M107.276 19.73C107.276 17.6977 105.629 16.0502 103.597 16.0502C101.564 16.0502 99.9166 17.6977 99.9166 19.73C99.9166 21.7624 101.564 23.4099 103.597 23.4099C105.629 23.4099 107.276 21.7624 107.276 19.73Z" stroke="#FFE031" stroke-miterlimit="10"/>
<path d="M127 19.73C127 17.6977 125.352 16.0502 123.32 16.0502C121.288 16.0502 119.64 17.6977 119.64 19.73C119.64 21.7624 121.288 23.4099 123.32 23.4099C125.352 23.4099 127 21.7624 127 19.73Z" fill="#FFE031"/>
<path d="M48.106 34.9698C48.106 32.9374 46.4585 31.2899 44.4262 31.2899C42.3938 31.2899 40.7463 32.9374 40.7463 34.9698C40.7463 37.0021 42.3938 38.6497 44.4262 38.6497C46.4585 38.6497 48.106 37.0021 48.106 34.9698Z" fill="#FFE031"/>
<path d="M67.8295 34.9698C67.8295 32.9374 66.1819 31.2899 64.1496 31.2899C62.1173 31.2899 60.4697 32.9374 60.4697 34.9698C60.4697 37.0021 62.1173 38.6497 64.1496 38.6497C66.1819 38.6497 67.8295 37.0021 67.8295 34.9698Z" fill="#FFE031"/>
<path d="M87.544 34.9698C87.544 36.9969 85.9004 38.6497 83.8641 38.6497C81.837 38.6497 80.1842 37.006 80.1842 34.9698C80.1842 32.9335 81.8279 31.2899 83.8641 31.2899C85.9004 31.2899 87.544 32.9335 87.544 34.9698Z" fill="#1D262D"/>
<path d="M107.276 34.9698C107.276 32.9374 105.629 31.2899 103.597 31.2899C101.564 31.2899 99.9166 32.9374 99.9166 34.9698C99.9166 37.0021 101.564 38.6497 103.597 38.6497C105.629 38.6497 107.276 37.0021 107.276 34.9698Z" fill="#FFE031"/>
<path d="M127 34.9698C127 32.9374 125.352 31.2899 123.32 31.2899C121.288 31.2899 119.64 32.9374 119.64 34.9698C119.64 37.0021 121.288 38.6497 123.32 38.6497C125.352 38.6497 127 37.0021 127 34.9698Z" fill="#FFE031"/>
<path d="M67.8295 50.21C67.8295 48.1777 66.1819 46.5301 64.1496 46.5301C62.1173 46.5301 60.4697 48.1777 60.4697 50.21C60.4697 52.2424 62.1173 53.8899 64.1496 53.8899C66.1819 53.8899 67.8295 52.2424 67.8295 50.21Z" stroke="#FFE031" stroke-miterlimit="10"/>
<path d="M87.544 50.21C87.544 52.2371 85.9004 53.8899 83.8641 53.8899C81.837 53.8899 80.1842 52.2463 80.1842 50.21C80.1842 48.1738 81.8279 46.5301 83.8641 46.5301C85.9004 46.5301 87.544 48.1738 87.544 50.21Z" fill="#FFE031"/>
<path d="M107.276 50.21C107.276 48.1777 105.629 46.5301 103.597 46.5301C101.564 46.5301 99.9166 48.1777 99.9166 50.21C99.9166 52.2424 101.564 53.8899 103.597 53.8899C105.629 53.8899 107.276 52.2424 107.276 50.21Z" fill="#FFE031"/>
<path d="M127 50.21C127 48.1777 125.352 46.5301 123.32 46.5301C121.288 46.5301 119.64 48.1777 119.64 50.21C119.64 52.2424 121.288 53.8899 123.32 53.8899C125.352 53.8899 127 52.2424 127 50.21Z" fill="#FFE031"/>
<path d="M87.544 65.4408C87.544 67.468 85.9004 69.1207 83.8641 69.1207C81.837 69.1207 80.1842 67.4771 80.1842 65.4408C80.1842 63.4137 81.8279 61.761 83.8641 61.761C85.9004 61.761 87.544 63.4137 87.544 65.4408Z" fill="#FFE031"/>
<path d="M107.276 65.4408C107.276 63.4085 105.629 61.761 103.597 61.761C101.564 61.761 99.9166 63.4085 99.9166 65.4408C99.9166 67.4732 101.564 69.1207 103.597 69.1207C105.629 69.1207 107.276 67.4732 107.276 65.4408Z" fill="#FFE031"/>
<path d="M127 65.4408C127 63.4085 125.352 61.761 123.32 61.761C121.288 61.761 119.64 63.4085 119.64 65.4408C119.64 67.4732 121.288 69.1207 123.32 69.1207C125.352 69.1207 127 67.4732 127 65.4408Z" fill="#FFE031"/>
</svg>
